<svg xmlns="http://www.w3.org/2000/svg" viewBox="0 0 512 512">
  <defs>
    <linearGradient id="bg" x1="0%" y1="0%" x2="100%" y2="100%">
      <stop offset="0%" style="stop-color:#667eea"/>
      <stop offset="100%" style="stop-color:#764ba2"/>
    </linearGradient>
  </defs>
  <!-- Background -->
  <rect width="512" height="512" rx="96" fill="url(#bg)"/>
  <!-- Document icon -->
  <path d="M160 96h128l80 80v240c0 17.7-14.3 32-32 32H160c-17.7 0-32-14.3-32-32V128c0-17.7 14.3-32 32-32z" fill="white" fill-opacity="0.95"/>
  <path d="M288 96v64c0 8.8 7.2 16 16 16h64" fill="none" stroke="white" stroke-width="8" stroke-opacity="0.7"/>
  <!-- Checkmark lines -->
  <path d="M168 200h120M168 248h160M168 296h140M168 344h100" stroke="#667eea" stroke-width="16" stroke-linecap="round"/>
  <!-- Check icon -->
  <circle cx="380" cy="380" r="72" fill="#4CAF50"/>
  <path d="M348 380l24 24 48-48" fill="none" stroke="white" stroke-width="12" stroke-linecap="round" stroke-linejoin="round"/>
</svg>
